<svg width="40" height="40" viewBox="0 0 40 40" fill="none" xmlns="http://www.w3.org/2000/svg">
<ellipse cx="20" cy="20.1947" rx="20" ry="19.58" fill="white"/>
<path fill-rule="evenodd" clip-rule="evenodd" d="M25.9997 29.0058H13.9997C12.2778 29.0058 10.9088 27.5892 11.0048 25.9063L11.6188 15.0825C11.7368 13.007 13.4898 11.3838 15.6127 11.3838H24.3877C26.5107 11.3838 28.2637 13.007 28.3817 15.0825L28.9957 25.9053C29.0907 27.5892 27.7217 29.0058 25.9997 29.0058Z" fill="white" stroke="black" stroke-width="1.5" stroke-linecap="round" stroke-linejoin="round"/>
<path d="M24 16.0341C24 18.1967 22.209 19.9501 20 19.9501C17.791 19.9501 16 18.1967 16 16.0341" fill="white"/>
<path d="M24 16.0341C24 18.1967 22.209 19.9501 20 19.9501C17.791 19.9501 16 18.1967 16 16.0341" stroke="black" stroke-width="1.5" stroke-linecap="round" stroke-linejoin="round"/>
</svg>
