<svg width="131" height="47" viewBox="0 0 131 47" fill="none" xmlns="http://www.w3.org/2000/svg">
<path d="M130.963 0.234863L35.8563 41.0985C27.9696 44.4656 21.345 46.1546 15.9878 46.1546C9.92112 46.1546 5.51733 44.0119 2.78731 39.7211C1.07022 36.9663 0.566462 33.4735 1.27063 29.2374C1.97481 25.0012 3.84899 20.4918 6.88235 15.6927C9.41195 11.8118 13.5557 6.71205 19.3245 0.38791C17.3678 3.49623 15.933 6.90914 15.0778 10.489C13.5611 17.0209 14.9262 21.8146 19.1729 24.8755C21.1933 26.3021 23.9721 27.0182 27.5146 27.0182C30.3421 27.0182 33.5271 26.559 37.0697 25.6408L130.963 0.234863Z" fill="white"/>
</svg>
