<svg width="41" height="41" viewBox="0 0 41 41" fill="none" xmlns="http://www.w3.org/2000/svg">
<path d="M15.7975 14.2165C16.8485 12.8669 18.4634 12.0777 20.174 12.0777C21.8845 12.0777 23.4994 12.8669 24.5504 14.2165L24.6215 14.3077C25.6823 15.6698 26.0791 17.4346 25.7035 19.1196L25.6583 19.3222C25.2881 20.983 24.1853 22.3867 22.6591 23.1393C21.0924 23.9118 19.2555 23.9118 17.6888 23.1393C16.1627 22.3867 15.0598 20.983 14.6896 19.3222L14.6444 19.1196C14.2688 17.4346 14.6657 15.6698 15.7264 14.3077L15.7975 14.2165Z" fill="white"/>
<path fill-rule="evenodd" clip-rule="evenodd" d="M20.174 12.0777C18.4634 12.0777 16.8485 12.8669 15.7975 14.2165L15.7264 14.3077C14.6657 15.6698 14.2688 17.4346 14.6444 19.1196L14.6896 19.3222C15.0598 20.983 16.1627 22.3867 17.6888 23.1393C19.2555 23.9118 21.0924 23.9118 22.6591 23.1393C24.1853 22.3867 25.2881 20.983 25.6583 19.3222L25.7035 19.1196C26.0791 17.4346 25.6823 15.6698 24.6215 14.3077L24.5504 14.2165C23.4994 12.8669 21.8845 12.0777 20.174 12.0777Z" fill="white"/>
<path fill-rule="evenodd" clip-rule="evenodd" d="M0.173828 20.6147C0.173828 9.56905 9.12813 0.614746 20.1738 0.614746C31.2195 0.614746 40.1738 9.56905 40.1738 20.6147C40.1738 31.6604 31.2195 40.6147 20.1738 40.6147C9.12813 40.6147 0.173828 31.6604 0.173828 20.6147ZM13.2524 12.2344C14.9147 10.1 17.4687 8.85189 20.174 8.85189C22.8793 8.85189 25.4333 10.1 27.0955 12.2344L27.1665 12.3256C28.819 14.4474 29.4371 17.1965 28.852 19.8214L28.8069 20.024C28.2242 22.6383 26.4881 24.8478 24.0858 26.0324C21.6197 27.2485 18.7282 27.2485 16.2621 26.0324C13.8598 24.8478 12.1238 22.6383 11.541 20.024L11.4959 19.8214C10.9108 17.1965 11.529 14.4474 13.1814 12.3256L13.2524 12.2344ZM15.7975 14.2165C16.8485 12.8669 18.4634 12.0777 20.174 12.0777C21.8845 12.0777 23.4994 12.8669 24.5504 14.2165L24.6215 14.3077C25.6823 15.6698 26.0791 17.4346 25.7035 19.1196L25.6583 19.3222C25.2881 20.983 24.1853 22.3867 22.6591 23.1393C21.0924 23.9118 19.2555 23.9118 17.6888 23.1393C16.1627 22.3867 15.0598 20.983 14.6896 19.3222L14.6444 19.1196C14.2688 17.4346 14.6657 15.6698 15.7264 14.3077L15.7975 14.2165ZM12.0668 29.433L13.1008 29.061C17.6728 27.416 22.6752 27.416 27.2472 29.061L28.2811 29.433C29.6638 29.9305 30.8807 30.7208 31.8722 31.7186C31.1283 32.502 30.3066 33.2108 29.4194 33.8325C28.7896 33.2422 28.0358 32.773 27.189 32.4683L26.155 32.0963C22.289 30.7053 18.0589 30.7053 14.1929 32.0963L13.1589 32.4683C12.312 32.773 11.5583 33.2423 10.9284 33.8326C10.0412 33.2109 9.21946 32.5021 8.47561 31.7187C9.46715 30.7208 10.6841 29.9305 12.0668 29.433Z" fill="white"/>
</svg>
